<svg width="112" height="114" viewBox="0 0 112 114" fill="none" xmlns="http://www.w3.org/2000/svg">
<path d="M99.5339 113.246H13.4927L12.828 101.351C12.4057 93.7937 16.6968 86.7635 23.6177 83.6988C31.4913 80.2124 41.2527 75.9028 45.5153 74.0728L57.0153 85.9359L67.3047 74.0728C71.6668 76.4255 81.0526 80.6312 88.633 83.9469C95.4177 86.9145 99.8062 93.6363 99.7033 101.041L99.5339 113.246Z" fill="url(#paint0_linear_231_55)"/>
<path d="M41.5609 100.297L37.6431 77.4678L45.5573 74.0029L67.4183 74.0268L74.2609 77.4678L70.9457 100.297L57.0068 86.0571L41.5609 100.297Z" fill="white"/>
<path d="M50.2841 101.706L47.1484 95.1769L56.9956 85.9839L65.0544 94.2529L61.7688 101.841L50.2841 101.706Z" fill="#1F306C"/>
<path d="M50.279 101.7L47.5278 113.241L63.9076 113.318L61.7779 101.802L50.279 101.7Z" fill="#1F306C"/>
<path d="M45.5654 74.002L45.8492 65.7678H67.3897V74.022L57.003 85.9728L45.5654 74.002Z" fill="url(#paint1_linear_231_55)"/>
<path d="M34.4937 17.2668H78.4593V46.8425C78.4593 58.9833 68.6172 68.8253 56.4765 68.8253C44.3357 68.8253 34.4937 58.9833 34.4937 46.8426V17.2668Z" fill="url(#paint2_linear_231_55)"/>
<path d="M26.9727 40.7465C26.9727 36.7576 30.2063 33.5239 34.1952 33.5239H34.7146V48.9674H34.1952C30.2063 48.9674 26.9727 45.7338 26.9727 41.7449V40.7465Z" fill="url(#paint3_linear_231_55)"/>
<path d="M86.0024 40.7465C86.0024 36.7576 82.7688 33.5239 78.7799 33.5239H78.2605V48.9674H78.7799C82.7688 48.9674 86.0024 45.7338 86.0024 41.7449V40.7465Z" fill="url(#paint4_linear_231_55)"/>
<circle cx="47.0796" cy="39.6465" r="1.98684" fill="#010101"/>
<circle cx="65.2862" cy="39.6465" r="1.98684" fill="#010101"/>
<path d="M49.6426 52.9033H62.6398V53.9571C62.6398 56.8672 60.2807 59.2263 57.3707 59.2263H54.9117C52.0017 59.2263 49.6426 56.8672 49.6426 53.9571V52.9033Z" fill="url(#paint5_linear_231_55)"/>
<path d="M32.5331 113.197L29.398 81.764C29.316 80.9421 28.4584 80.4374 27.7 80.7647L20.7962 83.7448C20.3221 83.9494 20.0281 84.4303 20.0621 84.9455L21.9263 113.197H32.5331Z" fill="#595757"/>
<path d="M78.8548 113.197L82.0533 82.0408C82.137 81.2247 82.9861 80.7221 83.7419 81.0412L90.2601 83.7934C90.7344 83.9937 91.032 84.4701 91.0039 84.9842L89.4616 113.197H78.8548Z" fill="#595757"/>
<path d="M36.4037 30.5812C45.2321 31.8372 51.617 25.6941 54.8791 22.9424C54.945 22.8869 55.0331 22.8715 55.1127 22.9044C57.0937 23.7214 58.4523 27.0845 57.785 29.444C57.7347 29.6218 57.8764 29.805 58.0593 29.7786C63.2993 29.0227 67.9259 25.2173 70.2584 22.0566C70.4025 21.8614 70.7773 21.959 70.8377 22.194C71.5494 24.9649 75.4987 28.8409 77.6982 30.4652C77.7915 30.5341 77.918 30.5254 78.0026 30.446C80.4652 28.1345 83.8733 24.282 83.2399 15.6524C82.5941 6.8523 74.6284 6.39833 70.7263 7.27135C69.3807 5.26339 65.2364 1.09031 59.4236 0.461729C52.1576 -0.323997 44.2188 4.2594 41.124 7.27135C38.126 10.1891 30.0773 10.0346 27.8642 10.0221C27.7498 10.0214 27.6498 10.1034 27.6275 10.2156C26.707 14.8515 30.3072 16.7957 34.2235 18.3349C34.3255 18.375 34.3897 18.4791 34.3719 18.5871C33.878 21.5883 28.8197 22.6557 26.0597 22.8392C25.9135 22.8489 25.8061 22.9826 25.8442 23.1241C26.6166 25.9901 31.9428 29.9466 36.4037 30.5812Z" fill="url(#paint6_linear_231_55)"/>
<defs>
<linearGradient id="paint0_linear_231_55" x1="55.9999" y1="74.0728" x2="55.9999" y2="113.246" gradientUnits="userSpaceOnUse">
<stop stop-color="#E2E9F9"/>
<stop offset="1" stop-color="#9AB1E4"/>
</linearGradient>
<linearGradient id="paint1_linear_231_55" x1="57.8687" y1="65.7678" x2="56.4776" y2="85.9728" gradientUnits="userSpaceOnUse">
<stop stop-color="#E59959"/>
<stop offset="1" stop-color="#FFD2AC"/>
</linearGradient>
<linearGradient id="paint2_linear_231_55" x1="56.4765" y1="17.2668" x2="56.4765" y2="68.8253" gradientUnits="userSpaceOnUse">
<stop stop-color="#FFBE87"/>
<stop offset="1" stop-color="#FEE8D5"/>
</linearGradient>
<linearGradient id="paint3_linear_231_55" x1="30.8436" y1="33.5239" x2="30.8436" y2="48.9674" gradientUnits="userSpaceOnUse">
<stop stop-color="#E59959"/>
<stop offset="1" stop-color="#F8CEAA"/>
</linearGradient>
<linearGradient id="paint4_linear_231_55" x1="82.1315" y1="33.5239" x2="82.1315" y2="48.9674" gradientUnits="userSpaceOnUse">
<stop stop-color="#E59959"/>
<stop offset="1" stop-color="#F8CEAA"/>
</linearGradient>
<linearGradient id="paint5_linear_231_55" x1="56.1412" y1="52.9033" x2="56.1412" y2="59.2263" gradientUnits="userSpaceOnUse">
<stop stop-color="#E59959"/>
<stop offset="1" stop-color="#F2D0B3"/>
</linearGradient>
<linearGradient id="paint6_linear_231_55" x1="54.5508" y1="0.372559" x2="54.5508" y2="30.7484" gradientUnits="userSpaceOnUse">
<stop stop-color="#2D4456"/>
<stop offset="1" stop-color="#234F72"/>
</linearGradient>
</defs>
</svg>
