<svg width="30" height="30" viewBox="0 0 30 30" fill="none" xmlns="http://www.w3.org/2000/svg">
<rect x="7.5" y="2.08594" width="15" height="26" rx="2" fill="url(#paint0_linear_224_244)"/>
<rect x="8" y="2.58594" width="14" height="25" rx="1.5" fill="white"/>
<circle cx="14.9998" cy="25.8428" r="0.968567" fill="#786C6C"/>
<rect x="13.7085" y="3.3772" width="2.58284" height="0.645711" rx="0.322856" fill="#4E4848"/>
<path d="M18.5513 12.74H11.4484C11.2772 12.74 11.113 12.808 10.9919 12.9291C10.8708 13.0502 10.8027 13.2144 10.8027 13.3857V19.1971C10.8027 19.3684 10.8708 19.5326 10.9919 19.6537C11.113 19.7748 11.2772 19.8428 11.4484 19.8428H18.5513C18.7225 19.8428 18.8868 19.7748 19.0079 19.6537C19.129 19.5326 19.197 19.3684 19.197 19.1971V13.3857C19.197 13.2144 19.129 13.0502 19.0079 12.9291C18.8868 12.808 18.7225 12.74 18.5513 12.74ZM17.9056 18.8742H12.0942C12.0085 18.8742 11.9264 18.8402 11.8659 18.7797C11.8053 18.7191 11.7713 18.637 11.7713 18.5514V14.0314C11.7713 13.9458 11.8053 13.8637 11.8659 13.8031C11.9264 13.7426 12.0085 13.7086 12.0942 13.7086C12.1798 13.7086 12.2619 13.7426 12.3225 13.8031C12.383 13.8637 12.417 13.9458 12.417 14.0314V17.1264L13.8029 15.7401C13.8329 15.7101 13.8685 15.6863 13.9077 15.67C13.9469 15.6538 13.9889 15.6454 14.0313 15.6454C14.0737 15.6454 14.1157 15.6538 14.1549 15.67C14.1941 15.6863 14.2297 15.7101 14.2597 15.7401L14.9999 16.4807L16.8034 14.6771H15.6456C15.5599 14.6771 15.4778 14.6431 15.4173 14.5826C15.3567 14.522 15.3227 14.4399 15.3227 14.3543C15.3227 14.2686 15.3567 14.1865 15.4173 14.126C15.4778 14.0654 15.5599 14.0314 15.6456 14.0314H17.5827C17.6683 14.0314 17.7504 14.0654 17.811 14.126C17.8715 14.1865 17.9056 14.2686 17.9056 14.3543V16.2914C17.9056 16.377 17.8715 16.4591 17.811 16.5197C17.7504 16.5802 17.6683 16.6143 17.5827 16.6143C17.4971 16.6143 17.415 16.5802 17.3544 16.5197C17.2939 16.4591 17.2598 16.377 17.2598 16.2914V15.1336L15.2283 17.1655C15.1983 17.1956 15.1627 17.2194 15.1235 17.2356C15.0843 17.2519 15.0423 17.2602 14.9999 17.2602C14.9574 17.2602 14.9154 17.2519 14.8762 17.2356C14.837 17.2194 14.8014 17.1956 14.7714 17.1655L14.0313 16.425L12.417 18.0393V18.2285H17.9056C17.9912 18.2285 18.0733 18.2626 18.1339 18.3231C18.1944 18.3836 18.2284 18.4658 18.2284 18.5514C18.2284 18.637 18.1944 18.7191 18.1339 18.7797C18.0733 18.8402 17.9912 18.8742 17.9056 18.8742Z" fill="#FFA8A7"/>
<defs>
<linearGradient id="paint0_linear_224_244" x1="15" y1="2.08594" x2="15" y2="28.0859" gradientUnits="userSpaceOnUse">
<stop stop-color="#464242"/>
<stop offset="1" stop-color="#3C3B3B"/>
</linearGradient>
</defs>
</svg>
