<svg width="100" height="100" viewBox="0 0 100 100" fill="none" xmlns="http://www.w3.org/2000/svg">
<ellipse cx="45.1771" cy="35.2604" rx="24.2845" ry="24.212" fill="#F2C6DF"/>
<rect x="12.4229" y="63.564" width="51.3182" height="11.6808" rx="2.29127" fill="url(#paint0_linear_232_546)"/>
<rect x="12.4229" y="75.2449" width="51.3182" height="10.0236" rx="2.29127" fill="url(#paint1_linear_232_546)"/>
<rect x="19.6709" y="63.564" width="1.22186" height="11.6808" fill="white"/>
<rect x="22.0469" y="63.564" width="2.44372" height="11.6808" fill="white"/>
<rect x="27.2832" y="75.2449" width="1.22186" height="8.84338" fill="white"/>
<rect x="29.6582" y="75.2449" width="2.44372" height="8.84338" fill="white"/>
<rect x="8.75684" y="84.0789" width="82.4861" height="4.87286" fill="url(#paint2_linear_232_546)"/>
<path d="M45.4921 45.1166C44.8206 45.7861 44.0235 46.3172 43.1462 46.6795C42.2688 47.0418 41.3285 47.2283 40.3789 47.2283C39.4293 47.2283 38.489 47.0418 37.6117 46.6795C36.7343 46.3172 35.9372 45.7861 35.2657 45.1166C34.5942 44.4472 34.0616 43.6524 33.6982 42.7777C33.3348 41.903 33.1477 40.9654 33.1477 40.0187C33.1477 39.0719 33.3348 38.1344 33.6982 37.2597C34.0616 36.385 34.5942 35.5902 35.2657 34.9207L40.3789 40.0187L45.4921 45.1166Z" fill="url(#paint3_linear_232_546)"/>
<path d="M26.2891 39.428H29.9546" stroke="black" stroke-width="1.14564" stroke-linecap="round"/>
<path d="M27.2832 47.2939L30.4577 45.4666" stroke="black" stroke-width="1.14564" stroke-linecap="round"/>
<path d="M33.0273 53.1252L34.8601 49.9602" stroke="black" stroke-width="1.14564" stroke-linecap="round"/>
<path d="M41.042 55.3567L41.042 51.702" stroke="black" stroke-width="1.14564" stroke-linecap="round"/>
<path d="M52.0999 23.7056L56.589 19.2234C57.0397 18.7735 57.7708 18.7774 58.2166 19.2321L61.256 22.3326C61.706 22.7915 61.6904 23.5307 61.2215 23.9703L56.4286 28.4639C56.2837 28.5997 56.1767 28.7708 56.1179 28.9605L50.2398 47.9239C49.9828 48.7529 48.9333 49.0063 48.3265 48.3858L32.2103 31.9079C31.6138 31.2981 31.8692 30.2737 32.6821 30.0151L51.6377 23.9866C51.812 23.9312 51.9705 23.8348 52.0999 23.7056Z" fill="url(#paint4_linear_232_546)"/>
<path d="M75.9683 77.4527L80.8336 49.7449L50.9053 19.7532" stroke="#D43803" stroke-width="1.71846" stroke-linejoin="round"/>
<path d="M84.7841 49.3518C84.7841 51.7382 82.8433 53.6757 80.4455 53.6757C78.0478 53.6757 76.107 51.7382 76.107 49.3518C76.107 46.9654 78.0478 45.0279 80.4455 45.0279C82.8433 45.0279 84.7841 46.9654 84.7841 49.3518Z" fill="#D9D9D9" stroke="black" stroke-width="1.14564"/>
<path d="M64.1045 81.3521C64.1045 78.8212 66.1562 76.7695 68.687 76.7695H83.9592C86.4901 76.7695 88.5417 78.8212 88.5417 81.3521V84.0788H64.1045V81.3521Z" fill="url(#paint5_linear_232_546)"/>
<defs>
<linearGradient id="paint0_linear_232_546" x1="12.4229" y1="69.4044" x2="63.7411" y2="69.4044" gradientUnits="userSpaceOnUse">
<stop stop-color="#FEE4CE"/>
<stop offset="1" stop-color="#D9833A"/>
</linearGradient>
<linearGradient id="paint1_linear_232_546" x1="12.4229" y1="80.2567" x2="63.7411" y2="80.2567" gradientUnits="userSpaceOnUse">
<stop stop-color="#F4AFF2"/>
<stop offset="1" stop-color="#FFE7FE"/>
</linearGradient>
<linearGradient id="paint2_linear_232_546" x1="42.0211" y1="84.0789" x2="42.1514" y2="88.9517" gradientUnits="userSpaceOnUse">
<stop stop-color="#EDC8AF"/>
<stop offset="1" stop-color="#FEF8F0"/>
</linearGradient>
<linearGradient id="paint3_linear_232_546" x1="45.4921" y1="34.9207" x2="35.2963" y2="45.1471" gradientUnits="userSpaceOnUse">
<stop stop-color="#F7DFA0"/>
<stop offset="1" stop-color="#FFFDF8"/>
</linearGradient>
<linearGradient id="paint4_linear_232_546" x1="46.4931" y1="18.4065" x2="46.4931" y2="49.7601" gradientUnits="userSpaceOnUse">
<stop stop-color="#FB3748"/>
<stop offset="1" stop-color="#FFE1E4"/>
</linearGradient>
<linearGradient id="paint5_linear_232_546" x1="66.9669" y1="78.1047" x2="70.4105" y2="88.4262" gradientUnits="userSpaceOnUse">
<stop stop-color="#FF4200"/>
<stop offset="1" stop-color="#BA3205"/>
</linearGradient>
</defs>
</svg>
