<svg width="100" height="100" viewBox="0 0 100 100" fill="none" xmlns="http://www.w3.org/2000/svg">
<path d="M89.5836 53.9584V46.0417C89.5836 29.248 89.5836 20.8511 83.787 15.6339C77.9899 10.4167 68.6599 10.4167 50.0003 10.4167C31.3406 10.4167 22.0107 10.4167 16.2138 15.6339C10.417 20.8511 10.417 29.248 10.417 46.0417V53.9584C10.417 70.7522 10.417 79.1492 16.2138 84.3663C22.0107 89.5834 31.3406 89.5834 50.0003 89.5834C68.6599 89.5834 77.9899 89.5834 83.787 84.3663C89.5836 79.1492 89.5836 70.7522 89.5836 53.9584Z" fill="url(#paint0_linear_200_208)"/>
<path d="M50 10.4167L50 89.5834" stroke="#E5E5E7" stroke-width="0.5"/>
<path d="M10.4165 50L89.5832 50" stroke="#E5E5E7" stroke-width="0.5"/>
<path d="M74.9997 33.3333H58.333M66.6663 25V41.6667" stroke="#1F306C" stroke-width="3" stroke-linecap="round" stroke-linejoin="round"/>
<path d="M74.9997 72.9167H58.333" stroke="#FFA8A7" stroke-width="3" stroke-linecap="round" stroke-linejoin="round"/>
<path d="M74.9997 60.4167H58.333" stroke="#FFA8A7" stroke-width="3" stroke-linecap="round" stroke-linejoin="round"/>
<path d="M41.6663 72.9166L34.3747 65.6249M34.3747 65.6249L27.083 58.3333M34.3747 65.6249L41.6663 58.3333M34.3747 65.6249L27.083 72.9166" stroke="#FF8A26" stroke-width="3" stroke-linecap="round" stroke-linejoin="round"/>
<path d="M41.6667 33.3333H25" stroke="#FB3748" stroke-width="3" stroke-linecap="round" stroke-linejoin="round"/>
<defs>
<linearGradient id="paint0_linear_200_208" x1="50.0003" y1="10.4167" x2="50.0003" y2="89.5834" gradientUnits="userSpaceOnUse">
<stop stop-color="#F4F0F9"/>
<stop offset="1" stop-color="white"/>
</linearGradient>
</defs>
</svg>
