<svg width="100" height="100" viewBox="0 0 100 100" fill="none" xmlns="http://www.w3.org/2000/svg">
<path d="M13.7944 16.4314C13.7944 13.3883 16.2613 10.9214 19.3044 10.9214H61.6886C62.7931 10.9214 63.8593 11.3267 64.6848 12.0606L76.0914 22.1997C76.6267 22.6755 76.9329 23.3575 76.9329 24.0737V83.5829C76.9329 86.6259 74.466 89.0929 71.4229 89.0929H19.3044C16.2613 89.0929 13.7944 86.626 13.7944 83.5829V16.4314Z" fill="url(#paint0_linear_229_42)"/>
<path d="M60.8896 10.907V23.0123C60.8896 24.3971 62.0122 25.5196 63.397 25.5196H76.9083" stroke="#5A5F69"/>
<rect x="28.1108" y="41.0977" width="33.0725" height="3.0066" rx="1.5033" fill="#5A5F69"/>
<rect x="28.1108" y="50.1174" width="33.0725" height="3.0066" rx="1.5033" fill="#5A5F69"/>
<rect x="28.1108" y="59.1372" width="30.066" height="3.0066" rx="1.5033" fill="#5A5F69"/>
<rect x="28.1108" y="68.157" width="21.0462" height="3.0066" rx="1.5033" fill="#5A5F69"/>
<path d="M81.9456 26.4985L86.2059 28.2022L81.4487 44.1041" stroke="#7F0081" stroke-width="2" stroke-linecap="round"/>
<path d="M78.4636 17.3478C78.8731 16.0714 80.2398 15.3686 81.5163 15.7781C82.7927 16.1876 83.4955 17.5544 83.086 18.8308L81.9138 22.4846L77.2914 21.0016L78.4636 17.3478Z" fill="#7F0081"/>
<path d="M74.4418 21.2523L61.2568 66.1868L70.8611 69.0814L84.1194 24.3396C84.3122 23.6888 83.9522 23.0028 83.307 22.7918L76.0344 20.4137C75.362 20.1939 74.641 20.5735 74.4418 21.2523Z" fill="url(#paint1_linear_229_42)"/>
<path d="M62.5573 77.4842L61.1128 66.0518L70.9637 69.037L62.5573 77.4842Z" fill="#7D717D"/>
<defs>
<linearGradient id="paint0_linear_229_42" x1="45.3637" y1="10.9214" x2="45.3637" y2="89.0929" gradientUnits="userSpaceOnUse">
<stop stop-color="white"/>
<stop offset="1" stop-color="#DADADA"/>
</linearGradient>
<linearGradient id="paint1_linear_229_42" x1="79.9699" y1="20.012" x2="65.437" y2="67.0334" gradientUnits="userSpaceOnUse">
<stop stop-color="#FFEFFF"/>
<stop offset="1" stop-color="#F4AFF2"/>
</linearGradient>
</defs>
</svg>
