<svg width="75" height="80" viewBox="0 0 75 80" fill="none" xmlns="http://www.w3.org/2000/svg">
<path d="M0.793945 6.4314C0.793945 3.38831 3.26086 0.921387 6.30395 0.921387H48.6881C49.7926 0.921387 50.8588 1.32674 51.6843 2.06057L63.0909 12.1997C63.6262 12.6755 63.9324 13.3575 63.9324 14.0737V73.5829C63.9324 76.6259 61.4655 79.0929 58.4224 79.0929H6.30394C3.26085 79.0929 0.793945 76.626 0.793945 73.5829V6.4314Z" fill="url(#paint0_linear_232_79)"/>
<path d="M47.8896 0.906982V13.0123C47.8896 14.3971 49.0122 15.5196 50.397 15.5196H63.9083" stroke="#5A5F69"/>
<rect x="15.1104" y="31.0977" width="33.0725" height="3.0066" rx="1.5033" fill="#5A5F69"/>
<rect x="15.1104" y="40.1174" width="33.0725" height="3.0066" rx="1.5033" fill="#5A5F69"/>
<rect x="15.1104" y="49.1372" width="30.066" height="3.0066" rx="1.5033" fill="#5A5F69"/>
<rect x="15.1104" y="58.157" width="21.0462" height="3.0066" rx="1.5033" fill="#5A5F69"/>
<path d="M68.9451 16.4985L73.2054 18.2022L68.4482 34.1041" stroke="#7F0081" stroke-width="2" stroke-linecap="round"/>
<path d="M65.4636 7.34783C65.8731 6.07138 67.2398 5.3686 68.5163 5.77811C69.7927 6.18762 70.4955 7.55435 70.086 8.8308L68.9138 12.4846L64.2914 11.0016L65.4636 7.34783Z" fill="#7F0081"/>
<path d="M61.4418 11.2523L48.2568 56.1868L57.8611 59.0814L71.1194 14.3396C71.3122 13.6888 70.9522 13.0028 70.307 12.7918L63.0344 10.4137C62.362 10.1939 61.641 10.5735 61.4418 11.2523Z" fill="url(#paint1_linear_232_79)"/>
<path d="M49.5568 67.4842L48.1123 56.0518L57.9632 59.037L49.5568 67.4842Z" fill="#7D717D"/>
<defs>
<linearGradient id="paint0_linear_232_79" x1="32.3632" y1="0.921387" x2="32.3632" y2="79.0929" gradientUnits="userSpaceOnUse">
<stop stop-color="white"/>
<stop offset="1" stop-color="#DADADA"/>
</linearGradient>
<linearGradient id="paint1_linear_232_79" x1="66.9699" y1="10.012" x2="52.437" y2="57.0334" gradientUnits="userSpaceOnUse">
<stop stop-color="#FFEFFF"/>
<stop offset="1" stop-color="#F4AFF2"/>
</linearGradient>
</defs>
</svg>
