<svg width="30" height="30" viewBox="0 0 30 30" fill="none" xmlns="http://www.w3.org/2000/svg">
<path d="M8.8606 5.95304L7.61059 6.92873C5.71476 8.40851 4.76685 9.14841 4.25843 10.1917C3.75 11.2349 3.75 12.4401 3.75 14.8504V17.4644C3.75 22.1953 3.75 24.5606 5.21446 26.0304C6.67894 27.5 9.03595 27.5 13.75 27.5H16.25C20.964 27.5 23.3211 27.5 24.7855 26.0304C26.25 24.5606 26.25 22.1953 26.25 17.4644V14.8504C26.25 12.4401 26.25 11.2349 25.7416 10.1917C25.2331 9.14841 24.2853 8.40851 22.3894 6.92873L21.1394 5.95304C18.1901 3.65101 16.7155 2.5 15 2.5C13.2845 2.5 11.8098 3.65101 8.8606 5.95304Z" fill="#7F0081"/>
<path d="M11.25 27.5L11.2524 22.497C11.2529 21.3338 11.2532 20.7521 11.4433 20.2934C11.6972 19.6804 12.1843 19.1934 12.7974 18.9399C13.2564 18.75 13.838 18.75 15.0013 18.75C16.1649 18.75 16.7468 18.75 17.2059 18.94C17.8191 19.1938 18.3063 19.6809 18.56 20.2941C18.75 20.7533 18.75 21.3351 18.75 22.4988V27.5" stroke="white" stroke-width="1.5"/>
</svg>
