<svg width="112" height="113" viewBox="0 0 112 113" fill="none" xmlns="http://www.w3.org/2000/svg">
<path d="M99.5339 111.954H13.4927L12.828 100.059C12.4057 92.5014 16.6968 85.4713 23.6177 82.4066C31.4913 78.9201 41.2527 74.6106 45.5153 72.7805L57.0153 84.6436L67.3047 72.7805C71.6668 75.1333 81.0526 79.339 88.633 82.6546C95.4177 85.6223 99.8062 92.3441 99.7033 99.7487L99.5339 111.954Z" fill="url(#paint0_linear_232_57)"/>
<path d="M40.2245 112.02L30.1245 79.5264L45.5119 72.7112H67.3207L81.6438 79.5264L72.0863 112.02H40.2245Z" fill="url(#paint1_linear_232_57)"/>
<path d="M41.5609 99.0053L37.6431 76.1757L45.508 72.7861H67.4355L74.2609 76.1757L70.9457 99.0053L57.0068 84.7651L41.5609 99.0053Z" fill="white"/>
<path d="M50.2832 100.414L47.1475 93.8844L56.9947 84.6914L65.0112 93.0187L61.7744 100.504L50.2832 100.414Z" fill="#FB3748"/>
<path d="M50.2785 100.407L47.5273 111.948L63.9071 112.026L61.7774 100.51L50.2785 100.407Z" fill="#FB3748"/>
<path d="M45.5645 72.7095L45.8482 64.4753H67.3887V72.7295L57.0264 84.8053L45.5645 72.7095Z" fill="url(#paint2_linear_232_57)"/>
<path d="M34.4932 15.9744H78.4588V45.5501C78.4588 57.6908 68.6167 67.5329 56.476 67.5329C44.3352 67.5329 34.4932 57.6908 34.4932 45.5501V15.9744Z" fill="url(#paint3_linear_232_57)"/>
<path d="M78.4587 15.8621V30.7724C78.4587 30.7724 65.0608 27.9747 56.476 27.9747C47.8911 27.9747 34.4932 30.7724 34.4932 30.7724V15.8621C34.4932 15.8621 47.8911 13.0645 56.476 13.0645C65.0608 13.0645 78.4587 15.8621 78.4587 15.8621Z" fill="#456379"/>
<path d="M34.0399 16.6342L15.6821 12.594L56.1591 2L98.3352 12.594L78.5531 16.6342H34.0399Z" fill="#2A4559"/>
<path d="M26.9722 39.4543C26.9722 35.4654 30.2058 32.2317 34.1947 32.2317H34.7141V47.6752H34.1947C30.2058 47.6752 26.9722 44.4416 26.9722 40.4526V39.4543Z" fill="url(#paint4_linear_232_57)"/>
<path d="M86.0015 39.4543C86.0015 35.4654 82.7678 32.2317 78.7789 32.2317H78.2596V47.6752H78.7789C82.7678 47.6752 86.0015 44.4416 86.0015 40.4526V39.4543Z" fill="url(#paint5_linear_232_57)"/>
<path d="M92.439 13.8066V24.6131" stroke="#FB3748" stroke-width="0.601882"/>
<circle cx="92.4396" cy="28.9725" r="4.3595" fill="#2A4559"/>
<circle cx="47.0796" cy="38.3543" r="1.98684" fill="#010101"/>
<circle cx="65.2862" cy="38.3543" r="1.98684" fill="#010101"/>
<path d="M49.6426 51.6111H62.6398V52.6649C62.6398 55.575 60.2807 57.9341 57.3707 57.9341H54.9117C52.0017 57.9341 49.6426 55.575 49.6426 52.6649V51.6111Z" fill="url(#paint6_linear_232_57)"/>
<defs>
<linearGradient id="paint0_linear_232_57" x1="55.9999" y1="72.7805" x2="55.9999" y2="111.954" gradientUnits="userSpaceOnUse">
<stop stop-color="#2E2C2C"/>
<stop offset="1" stop-color="#624B4B"/>
</linearGradient>
<linearGradient id="paint1_linear_232_57" x1="55.8842" y1="72.7112" x2="55.8842" y2="112.02" gradientUnits="userSpaceOnUse">
<stop stop-color="#E2E9F9"/>
<stop offset="1" stop-color="#EEF3FF"/>
</linearGradient>
<linearGradient id="paint2_linear_232_57" x1="56.4766" y1="62.1293" x2="56.4766" y2="81.544" gradientUnits="userSpaceOnUse">
<stop stop-color="#E59959"/>
<stop offset="1" stop-color="#FFD2AC"/>
</linearGradient>
<linearGradient id="paint3_linear_232_57" x1="56.476" y1="15.9744" x2="56.476" y2="67.5329" gradientUnits="userSpaceOnUse">
<stop stop-color="#FFBE87"/>
<stop offset="1" stop-color="#FEE8D5"/>
</linearGradient>
<linearGradient id="paint4_linear_232_57" x1="30.8431" y1="32.2317" x2="30.8431" y2="47.6752" gradientUnits="userSpaceOnUse">
<stop stop-color="#E59959"/>
<stop offset="1" stop-color="#F8CEAA"/>
</linearGradient>
<linearGradient id="paint5_linear_232_57" x1="82.1305" y1="32.2317" x2="82.1305" y2="47.6752" gradientUnits="userSpaceOnUse">
<stop stop-color="#E59959"/>
<stop offset="1" stop-color="#F8CEAA"/>
</linearGradient>
<linearGradient id="paint6_linear_232_57" x1="56.1412" y1="51.6111" x2="56.1412" y2="57.9341" gradientUnits="userSpaceOnUse">
<stop stop-color="#E59959"/>
<stop offset="1" stop-color="#F2D0B3"/>
</linearGradient>
</defs>
</svg>
