<svg width="122" height="105" viewBox="0 0 122 105" fill="none" xmlns="http://www.w3.org/2000/svg">
<path d="M36.2795 18.2103L90.0774 21.9708C92.8076 22.1617 95.1817 23.9131 96.1697 26.4654C96.2617 26.7029 96.3189 26.9524 96.3396 27.2062L96.7298 31.9929C96.7596 32.3587 97.1815 32.5474 97.4741 32.3258L102.358 28.6267C111.28 21.8692 109.995 8.09061 99.9775 3.09949C98.5773 2.40185 97.0255 2.0636 95.4619 2.11523L19.1205 4.63609C15.8091 4.74543 12.9313 6.94279 11.9537 10.1085C10.8523 13.6749 12.4427 17.5205 15.7414 19.2671L58.9305 42.1351C59.2414 42.2997 59.2641 42.7364 58.972 42.9323L15.7713 71.9134C8.72317 76.6416 9.24922 87.1739 16.7334 91.1763C18.3646 92.0486 20.1856 92.5053 22.0353 92.5058L93.931 92.5275C101.165 92.5297 107.333 87.2883 108.499 80.1494C109.373 74.8004 107.648 69.355 103.854 65.4848L98.5574 60.0824C98.3064 59.8264 97.8756 60.0505 97.9412 60.403C99.053 66.3772 94.8904 72.0495 88.8578 72.7809L33.5587 79.4855L79.2154 57.5684C81.4388 56.5011 83.301 54.8062 84.5722 52.6929C88.6178 45.9675 85.6143 37.2198 78.2908 34.3979L36.2795 18.2103Z" fill="#7F0081"/>
<path d="M26.9668 97.3886V96.7709H31.2792V97.3886H29.4711V102.521H28.7748V97.3886H26.9668ZM32.3538 102.521V96.7709H34.2966C34.7458 96.7709 35.1145 96.8476 35.4028 97.0011C35.691 97.1527 35.9044 97.3614 36.0429 97.6272C36.1814 97.893 36.2506 98.1953 36.2506 98.534C36.2506 98.8728 36.1814 99.1732 36.0429 99.4353C35.9044 99.6973 35.6919 99.9032 35.4056 100.053C35.1192 100.201 34.7533 100.275 34.3078 100.275H32.7356V99.6458H34.2854C34.5923 99.6458 34.8394 99.6009 35.0266 99.5111C35.2156 99.4212 35.3522 99.2939 35.4365 99.1292C35.5226 98.9627 35.5656 98.7643 35.5656 98.534C35.5656 98.3038 35.5226 98.1026 35.4365 97.9304C35.3504 97.7582 35.2128 97.6253 35.0237 97.5317C34.8347 97.4363 34.5848 97.3886 34.2741 97.3886H33.05V102.521H32.3538ZM35.0602 99.9378L36.4752 102.521H35.6667L34.2741 99.9378H35.0602ZM41.1842 96.7709H41.8805V100.578C41.8805 100.971 41.7878 101.322 41.6025 101.631C41.4191 101.938 41.1599 102.18 40.8248 102.358C40.4898 102.534 40.0967 102.622 39.6457 102.622C39.1946 102.622 38.8015 102.534 38.4665 102.358C38.1315 102.18 37.8713 101.938 37.686 101.631C37.5026 101.322 37.4109 100.971 37.4109 100.578V96.7709H38.1071V100.522C38.1071 100.803 38.1689 101.052 38.2924 101.271C38.416 101.489 38.5919 101.66 38.8202 101.785C39.0505 101.909 39.3256 101.97 39.6457 101.97C39.9657 101.97 40.2409 101.909 40.4711 101.785C40.7013 101.66 40.8772 101.489 40.9989 101.271C41.1224 101.052 41.1842 100.803 41.1842 100.522V96.7709ZM43.2709 102.521V96.7709H46.741V97.3886H43.9672V99.3314H46.5614V99.949H43.9672V101.903H46.786V102.521H43.2709ZM50.2196 102.521V96.7709H53.6897V97.3886H50.9159V99.3314H53.51V99.949H50.9159V101.903H53.7346V102.521H50.2196ZM56.7191 102.521H54.9447V96.7709H56.7977C57.3554 96.7709 57.8327 96.886 58.2295 97.1162C58.6263 97.3446 58.9305 97.6731 59.142 98.1017C59.3535 98.5284 59.4592 99.0394 59.4592 99.6346C59.4592 100.234 59.3525 100.749 59.1392 101.182C58.9258 101.612 58.6151 101.943 58.2071 102.175C57.799 102.406 57.303 102.521 56.7191 102.521ZM55.641 101.903H56.6741C57.1495 101.903 57.5435 101.811 57.8561 101.628C58.1687 101.445 58.4017 101.183 58.5552 100.845C58.7087 100.506 58.7854 100.103 58.7854 99.6346C58.7854 99.1704 58.7096 98.7708 58.558 98.4358C58.4064 98.0989 58.1799 97.8406 57.8786 97.6609C57.5772 97.4793 57.202 97.3886 56.7527 97.3886H55.641V101.903ZM64.4005 96.7709H65.0968V100.578C65.0968 100.971 65.0041 101.322 64.8188 101.631C64.6354 101.938 64.3762 102.18 64.0411 102.358C63.7061 102.534 63.3131 102.622 62.862 102.622C62.4109 102.622 62.0178 102.534 61.6828 102.358C61.3478 102.18 61.0876 101.938 60.9023 101.631C60.7189 101.322 60.6272 100.971 60.6272 100.578V96.7709H61.3234V100.522C61.3234 100.803 61.3852 101.052 61.5087 101.271C61.6323 101.489 61.8082 101.66 62.0366 101.785C62.2668 101.909 62.5419 101.97 62.862 101.97C63.182 101.97 63.4572 101.909 63.6874 101.785C63.9176 101.66 64.0935 101.489 64.2152 101.271C64.3387 101.052 64.4005 100.803 64.4005 100.522V96.7709ZM71.1141 98.5677H70.4178C70.3766 98.3675 70.3045 98.1915 70.2016 98.0399C70.1005 97.8883 69.977 97.761 69.831 97.6581C69.6869 97.5533 69.5269 97.4747 69.3509 97.4222C69.175 97.3698 68.9915 97.3436 68.8006 97.3436C68.4525 97.3436 68.1371 97.4316 67.8545 97.6075C67.5737 97.7835 67.3501 98.0427 67.1835 98.3852C67.0188 98.7278 66.9364 99.148 66.9364 99.6458C66.9364 100.144 67.0188 100.564 67.1835 100.906C67.3501 101.249 67.5737 101.508 67.8545 101.684C68.1371 101.86 68.4525 101.948 68.8006 101.948C68.9915 101.948 69.175 101.922 69.3509 101.869C69.5269 101.817 69.6869 101.739 69.831 101.636C69.977 101.532 70.1005 101.403 70.2016 101.252C70.3045 101.098 70.3766 100.922 70.4178 100.724H71.1141C71.0616 101.018 70.9662 101.281 70.8277 101.513C70.6892 101.745 70.517 101.942 70.3111 102.105C70.1052 102.266 69.8741 102.389 69.6176 102.473C69.3631 102.557 69.0907 102.599 68.8006 102.599C68.3102 102.599 67.8741 102.48 67.4923 102.24C67.1105 102 66.8101 101.66 66.5911 101.218C66.3721 100.776 66.2626 100.252 66.2626 99.6458C66.2626 99.0394 66.3721 98.5153 66.5911 98.0736C66.8101 97.6319 67.1105 97.2912 67.4923 97.0517C67.8741 96.8121 68.3102 96.6923 68.8006 96.6923C69.0907 96.6923 69.3631 96.7344 69.6176 96.8186C69.8741 96.9029 70.1052 97.0264 70.3111 97.1892C70.517 97.3502 70.6892 97.5467 70.8277 97.7788C70.9662 98.009 71.0616 98.272 71.1141 98.5677ZM72.475 102.521H71.745L73.8563 96.7709H74.5751L76.6863 102.521H75.9564L74.2381 97.6805H74.1932L72.475 102.521ZM72.7445 100.275H75.6868V100.892H72.7445V100.275ZM76.5958 97.3886V96.7709H80.9082V97.3886H79.1001V102.521H78.4038V97.3886H76.5958ZM82.679 96.7709V102.521H81.9828V96.7709H82.679ZM88.9265 99.6458C88.9265 100.252 88.817 100.776 88.598 101.218C88.3791 101.66 88.0787 102 87.6968 102.24C87.315 102.48 86.8789 102.599 86.3885 102.599C85.8981 102.599 85.462 102.48 85.0802 102.24C84.6984 102 84.398 101.66 84.179 101.218C83.96 100.776 83.8505 100.252 83.8505 99.6458C83.8505 99.0394 83.96 98.5153 84.179 98.0736C84.398 97.6319 84.6984 97.2912 85.0802 97.0517C85.462 96.8121 85.8981 96.6923 86.3885 96.6923C86.8789 96.6923 87.315 96.8121 87.6968 97.0517C88.0787 97.2912 88.3791 97.6319 88.598 98.0736C88.817 98.5153 88.9265 99.0394 88.9265 99.6458ZM88.2527 99.6458C88.2527 99.148 88.1694 98.7278 88.0028 98.3852C87.8381 98.0427 87.6145 97.7835 87.3318 97.6075C87.0511 97.4316 86.7366 97.3436 86.3885 97.3436C86.0404 97.3436 85.725 97.4316 85.4424 97.6075C85.1616 97.7835 84.9379 98.0427 84.7714 98.3852C84.6067 98.7278 84.5243 99.148 84.5243 99.6458C84.5243 100.144 84.6067 100.564 84.7714 100.906C84.9379 101.249 85.1616 101.508 85.4424 101.684C85.725 101.86 86.0404 101.948 86.3885 101.948C86.7366 101.948 87.0511 101.86 87.3318 101.684C87.6145 101.508 87.8381 101.249 88.0028 100.906C88.1694 100.564 88.2527 100.144 88.2527 99.6458ZM94.6567 96.7709V102.521H93.9829L90.8497 98.0062H90.7935V102.521H90.0973V96.7709H90.7711L93.9155 101.297H93.9717V96.7709H94.6567Z" fill="black"/>
</svg>
