<svg width="80" height="99" viewBox="0 0 80 99" fill="none" xmlns="http://www.w3.org/2000/svg">
<path d="M25.8686 88.2275V82.049C21.3044 77.4012 16.5981 70.8625 16.5981 62.392C16.5981 55.2088 16.7022 41.6083 16.7022 39.644C16.7022 36.5326 19.2685 35.3044 20.8723 35.3044C22.6232 35.3044 24.8353 36.707 25.0142 39.0321C24.8778 35.2193 25.669 31.939 29.3342 31.939C32.7774 31.939 33.555 34.1515 34.0254 35.8415C33.4879 32.9889 34.4896 28.8168 38.121 28.7641C41.3591 28.7172 42.5261 31.0181 42.6988 32.8844C42.6898 30.4528 43.4054 26.0288 47.9806 26.0288C52.3807 26.0288 53.2285 29.7282 53.2285 32.2805V38.9548C55.8921 39.989 60.2636 44.2901 60.585 50.4764C60.9867 58.2092 58.6101 69.1006 57.2609 72.2597C56.1301 74.9073 52.4628 79.6897 50.9564 82.049V88.2275H25.8686Z" fill="url(#paint0_linear_207_45)" stroke="#FFE4D5" stroke-width="1.5"/>
<path d="M37.4065 68.5876C37.2658 68.9772 37.4677 69.4071 37.8573 69.5477C38.2469 69.6883 38.6767 69.4865 38.8174 69.0969L37.4065 68.5876ZM53.8573 52.5367L54.1842 53.2117L56.524 52.0784L53.9401 51.7913L53.8573 52.5367ZM38.8174 69.0969C40.0285 65.7415 44.8309 57.7422 54.1842 53.2117L53.5303 51.8617C43.7652 56.5917 38.7262 64.9311 37.4065 68.5876L38.8174 69.0969ZM53.9401 51.7913C48.9895 51.2412 45.1673 49.8798 42.4937 48.3073C39.7874 46.7155 38.3537 44.9683 37.9894 43.7041L36.5481 44.1194C37.0671 45.9209 38.8867 47.926 41.7332 49.6002C44.6126 51.2937 48.643 52.7119 53.7745 53.2821L53.9401 51.7913ZM37.9894 43.7041C37.6275 42.4482 37.9822 41.3981 38.7849 40.6371C39.6134 39.8516 40.9677 39.3381 42.6097 39.3619L42.6314 37.862C40.6882 37.8339 38.9249 38.4374 37.7529 39.5485C36.5553 40.6839 36.0266 42.3098 36.5481 44.1194L37.9894 43.7041ZM42.6097 39.3619C45.471 39.4033 50.7383 39.5536 52.9673 39.64L53.0254 38.1411C50.786 38.0543 45.5064 37.9037 42.6314 37.862L42.6097 39.3619Z" fill="#FFE4D4"/>
<rect x="17.124" y="35.751" width="7.49382" height="16.4021" rx="3.74691" stroke="#FFE4D4" stroke-width="1.5"/>
<rect x="25.4429" y="32.3096" width="8.54741" height="22.1126" rx="4.27371" stroke="#FFE4D4" stroke-width="1.5"/>
<path d="M42.7501 49.1813V52.6334C42.7501 55.0363 40.8022 56.9843 38.3992 56.9843V56.9843C35.9963 56.9843 34.0483 55.0363 34.0483 52.6334V33.1048C34.0483 30.7019 35.9963 28.7539 38.3992 28.7539V28.7539C40.8022 28.7539 42.7501 30.7019 42.7501 33.1048V38.9676" stroke="#FFE4D4" stroke-width="1.5"/>
<path d="M48.0266 56.2343V56.2343C45.1127 56.2343 42.7505 53.8721 42.7505 50.9582V49.1376M53.3027 39.2249V31.2583C53.3027 28.3444 50.9405 25.9822 48.0266 25.9822V25.9822C45.1127 25.9822 42.7505 28.3444 42.7505 31.2583V38.5005" stroke="#FFE4D4" stroke-width="1.5"/>
<rect x="20.8647" y="88.9385" width="34.0812" height="10.0236" rx="1.40545" fill="#7F0081"/>
<circle cx="48.6632" cy="93.9503" r="2.20522" fill="white"/>
<path d="M1.44629 32.5901L7.81212 36.2654" stroke="#7F0081" stroke-width="1.40545" stroke-linecap="round"/>
<path d="M78.5537 32.5901L72.1879 36.2654" stroke="#7F0081" stroke-width="1.40545" stroke-linecap="round"/>
<path d="M8.23584 24.9182L13.4335 30.1159" stroke="#7F0081" stroke-width="1.40545" stroke-linecap="round"/>
<path d="M71.8306 24.9182L66.6329 30.1159" stroke="#7F0081" stroke-width="1.40545" stroke-linecap="round"/>
<path d="M16.1313 18.9197L19.8067 25.2855" stroke="#7F0081" stroke-width="1.40545" stroke-linecap="round"/>
<path d="M63.9351 18.9197L60.2597 25.2855" stroke="#7F0081" stroke-width="1.40545" stroke-linecap="round"/>
<path d="M25.6436 14.5842L27.546 21.6844" stroke="#7F0081" stroke-width="1.40545" stroke-linecap="round"/>
<path d="M54.7368 15.0024L52.8343 22.1026" stroke="#7F0081" stroke-width="1.40545" stroke-linecap="round"/>
<path d="M39.575 1.86097C39.6802 1.53726 40.1381 1.53726 40.2433 1.86097L42.3282 8.27757C42.3752 8.42234 42.5101 8.52036 42.6624 8.52036H49.4092C49.7495 8.52036 49.8911 8.95591 49.6157 9.15598L44.1574 13.1217C44.0343 13.2111 43.9827 13.3697 44.0298 13.5145L46.1147 19.9311C46.2198 20.2548 45.8493 20.524 45.574 20.3239L40.1157 16.3582C39.9925 16.2688 39.8258 16.2688 39.7026 16.3582L34.2443 20.3239C33.969 20.524 33.5985 20.2548 33.7036 19.9311L35.7885 13.5145C35.8356 13.3697 35.784 13.2111 35.6609 13.1217L30.2026 9.15598C29.9272 8.95591 30.0688 8.52036 30.4091 8.52036H37.1559C37.3082 8.52036 37.4431 8.42234 37.4901 8.27758L39.575 1.86097Z" fill="#FFA52E"/>
<defs>
<linearGradient id="paint0_linear_207_45" x1="38.6141" y1="26.3425" x2="38.6141" y2="88.2276" gradientUnits="userSpaceOnUse">
<stop stop-color="#FFC3A1"/>
<stop offset="1" stop-color="#C79172"/>
</linearGradient>
</defs>
</svg>
