<svg width="100" height="100" viewBox="0 0 100 100" fill="none" xmlns="http://www.w3.org/2000/svg">
<path d="M27.249 7.88867H78.751C79.8555 7.88867 80.751 8.7841 80.751 9.88867V74.0914C78.5692 79.5196 78.4392 85.5567 80.3851 91.0739L80.751 92.1111H27.249C22.8307 92.1111 19.249 88.5294 19.249 84.1111V80.555V15.8887C19.249 11.4704 22.8307 7.88867 27.249 7.88867Z" fill="url(#paint0_linear_232_61)"/>
<path d="M19.249 14.8887C19.249 11.0227 22.383 7.88867 26.249 7.88867H28.2852V89.2285H26.249C22.383 89.2285 19.249 86.0945 19.249 82.2285V14.8887Z" fill="#C6B298"/>
<path d="M19.249 83.01C19.249 77.9838 23.3236 73.9092 28.3499 73.9092H80.7096L79.6429 77.9768C78.7622 81.3352 78.771 84.865 79.6683 88.2189L80.7096 92.1109H28.3499C23.3236 92.1109 19.249 88.0363 19.249 83.01Z" fill="url(#paint1_linear_232_61)"/>
<path d="M30.4072 84.4695C30.1311 84.4695 29.9072 84.6933 29.9072 84.9695C29.9072 85.2456 30.1311 85.4695 30.4072 85.4695V84.4695ZM30.4072 85.4695H77.121V84.4695H30.4072V85.4695Z" fill="#BE8934"/>
<path d="M55.2515 78.0623C54.9753 78.0623 54.7515 78.2861 54.7515 78.5623C54.7515 78.8384 54.9753 79.0623 55.2515 79.0623L55.2515 78.0623ZM55.2515 79.0623L77.9848 79.0623L77.9848 78.0623L55.2515 78.0623L55.2515 79.0623Z" fill="#BE8934"/>
<g clip-path="url(#clip0_232_61)">
<path d="M48.5565 47.3159C47.6108 45.6044 47.2184 43.6419 47.4332 41.6983C47.6481 39.7548 48.4597 37.9254 49.7565 36.4619C51.0533 34.9983 52.7716 33.9723 54.6752 33.5249C56.5787 33.0776 58.5742 33.2308 60.3871 33.9636L54.4718 40.3743L55.3088 44.2695L59.204 45.1065L65.6147 39.1912C66.3475 41.0042 66.5008 42.9996 66.0534 44.9032C65.6061 46.8067 64.5801 48.525 63.1165 49.8218C61.6529 51.1186 59.8236 51.9302 57.88 52.1451C55.9364 52.36 53.974 51.9676 52.2624 51.0218L43.9722 60.6342C43.3054 61.3009 42.4011 61.6755 41.4582 61.6755C40.5152 61.6755 39.6109 61.3009 38.9442 60.6342C38.2774 59.9674 37.9028 59.0631 37.9028 58.1202C37.9028 57.1772 38.2774 56.2729 38.9442 55.6062L48.5565 47.3159Z" fill="url(#paint2_linear_232_61)"/>
<path d="M57.752 61.6755L50.563 54.4866" stroke="black" stroke-width="2" stroke-linecap="round" stroke-linejoin="round"/>
<path d="M47.8753 45.5441C47.9707 45.4486 48.084 45.3729 48.2087 45.3212C48.3333 45.2695 48.467 45.2429 48.6019 45.2429C48.7369 45.2429 48.8705 45.2695 48.9952 45.3212C49.1199 45.3729 49.2332 45.4486 49.3285 45.5441L50.3555 46.5711C50.4906 46.7496 50.5636 46.9673 50.5635 47.1912L50.5635 49.3517C50.5635 49.624 50.6717 49.8853 50.8643 50.0779C51.0569 50.2705 51.3181 50.3787 51.5905 50.3787L53.733 50.3787C54.005 50.3788 54.2659 50.4868 54.4583 50.6791L61.2916 57.5124C61.7975 58.0181 62.1988 58.6185 62.4725 59.2793C62.7463 59.9401 62.8872 60.6483 62.8872 61.3636C62.8872 62.0788 62.7463 62.7871 62.4725 63.4479C62.1988 64.1087 61.7975 64.7091 61.2916 65.2148C60.786 65.7206 60.1856 66.1219 59.5248 66.3957C58.864 66.6694 58.1557 66.8103 57.4404 66.8103C56.7252 66.8103 56.0169 66.6694 55.3561 66.3957C54.6953 66.1219 54.0949 65.7206 53.5892 65.2148L46.7559 58.3815C46.5637 58.189 46.4557 57.9282 46.4555 57.6562L46.4555 55.5136C46.4555 55.2412 46.3473 54.98 46.1547 54.7874C45.9621 54.5948 45.7009 54.4866 45.4286 54.4866L43.268 54.4866C43.0442 54.4867 42.8265 54.4137 42.648 54.2786L41.621 53.2517C41.5255 53.1563 41.4498 53.043 41.3981 52.9183C41.3464 52.7937 41.3198 52.66 41.3198 52.5251C41.3198 52.3901 41.3464 52.2565 41.3981 52.1318C41.4498 52.0071 41.5255 51.8939 41.621 51.7985L47.8753 45.5441Z" fill="url(#paint3_linear_232_61)"/>
<path d="M44.748 48.6712L34.1316 38.0547" stroke="#BC8B36" stroke-width="2" stroke-linecap="round" stroke-linejoin="round"/>
</g>
<defs>
<linearGradient id="paint0_linear_232_61" x1="50" y1="7.88867" x2="50" y2="92.1111" gradientUnits="userSpaceOnUse">
<stop stop-color="#FFFEFD"/>
<stop offset="1" stop-color="#FED9A4"/>
</linearGradient>
<linearGradient id="paint1_linear_232_61" x1="46.1539" y1="70.4628" x2="65.2237" y2="92.1109" gradientUnits="userSpaceOnUse">
<stop stop-color="#FFECD1"/>
<stop offset="1" stop-color="#FFD18A"/>
</linearGradient>
<linearGradient id="paint2_linear_232_61" x1="52.1036" y1="33.2739" x2="52.1036" y2="61.6755" gradientUnits="userSpaceOnUse">
<stop stop-color="#B8C8CB"/>
<stop offset="1" stop-color="#818181"/>
</linearGradient>
<linearGradient id="paint3_linear_232_61" x1="46.0305" y1="45.2429" x2="66.2841" y2="65.0559" gradientUnits="userSpaceOnUse">
<stop stop-color="white"/>
<stop offset="1" stop-color="#AEDFF5"/>
</linearGradient>
<clipPath id="clip0_232_61">
<rect width="40.4475" height="40.4475" fill="white" transform="translate(28.2856 26.3628)"/>
</clipPath>
</defs>
</svg>
