<svg width="100" height="100" viewBox="0 0 100 100" fill="none" xmlns="http://www.w3.org/2000/svg">
<rect x="21.5439" y="1.63452" width="56.9936" height="78.7055" rx="5.42797" transform="rotate(15 21.5439 1.63452)" fill="url(#paint0_linear_232_297)"/>
<path d="M73.2568 28.8447L74.5676 29.1959C76.7393 29.7779 78.0281 32.0101 77.4462 34.1818L75.3389 42.0464C74.757 44.2181 72.5247 45.5069 70.353 44.925L69.0423 44.5738L73.2568 28.8447Z" fill="#FFECF7"/>
<path d="M68.6738 45.9487L69.9846 46.2999C72.1563 46.8819 73.4451 49.1141 72.8632 51.2859L70.7559 59.1504C70.174 61.3221 67.9417 62.6109 65.77 62.029L64.4592 61.6778L68.6738 45.9487Z" fill="#FFFCFC"/>
<rect x="26.5986" y="14.2278" width="32.3531" height="2.71398" rx="1.35699" transform="rotate(15 26.5986 14.2278)" fill="#C8C7B7"/>
<rect x="24.4912" y="22.0923" width="32.3531" height="2.71398" rx="1.35699" transform="rotate(15 24.4912 22.0923)" fill="#C8C7B7"/>
<rect x="22.3838" y="29.9568" width="32.3531" height="2.71398" rx="1.35699" transform="rotate(15 22.3838 29.9568)" fill="#C8C7B7"/>
<rect x="20.2773" y="37.8213" width="32.3531" height="2.71398" rx="1.35699" transform="rotate(15 20.2773 37.8213)" fill="#C8C7B7"/>
<path d="M83.1814 26.7215C83.6254 25.0645 85.3286 24.0811 86.9857 24.5251L92.9864 26.133C94.6434 26.577 95.6268 28.2802 95.1828 29.9373L80.7119 83.9433L68.7105 80.7276L83.1814 26.7215Z" fill="url(#paint1_linear_232_297)"/>
<path d="M83.1814 26.7215C83.6254 25.0645 85.3286 24.0811 86.9857 24.5251L92.9864 26.133C94.6434 26.577 95.6268 28.2802 95.1828 29.9373L94.6242 32.022L82.6228 28.8062L83.1814 26.7215Z" fill="#393A3C"/>
<path d="M68.7107 80.7275L80.7117 83.9431L72.2995 91.3362L68.7107 80.7275Z" fill="url(#paint2_linear_232_297)"/>
<path d="M70.493 85.9803L76.5459 87.6022L72.294 91.3592L70.493 85.9803Z" fill="#333334"/>
<path d="M62.9424 12.7271L69.4961 14.4831L63.8909 35.4023C63.7436 35.9519 63.0261 36.0871 62.6889 35.6288L61.2727 33.7036C61.0846 33.448 60.7445 33.3569 60.4539 33.4842L58.2648 34.4433C57.7437 34.6716 57.1898 34.1958 57.3371 33.6463L62.9424 12.7271Z" fill="#FF4848"/>
<path d="M26.0006 60.0901C25.5047 59.9573 25.0667 59.7502 24.6866 59.4689C24.3082 59.1811 24.0026 58.8405 23.7699 58.4468C23.5372 58.0532 23.3876 57.6197 23.3212 57.1464C23.2612 56.6748 23.2985 56.1878 23.4331 55.6855C23.5815 55.1317 23.8193 54.6433 24.1466 54.2203C24.4757 53.7908 24.8656 53.4432 25.3164 53.1775C25.7736 52.9135 26.2672 52.7456 26.7973 52.6736C27.329 52.5953 27.875 52.6311 28.4352 52.7812C28.9375 52.9158 29.3778 53.127 29.7563 53.4147C30.1364 53.696 30.4428 54.0335 30.6756 54.4272C30.9083 54.8208 31.0546 55.2534 31.1146 55.725C31.1763 56.1902 31.1399 56.6739 31.0053 57.1762C30.8569 57.73 30.6182 58.2216 30.2892 58.6511C29.9619 59.0741 29.5687 59.4208 29.1098 59.6913C28.6525 59.9553 28.158 60.1264 27.6263 60.2048C27.0963 60.2768 26.5544 60.2385 26.0006 60.0901ZM26.2898 59.0495C26.6826 59.1548 27.0695 59.1791 27.4504 59.1224C27.8331 59.0593 28.1854 58.9294 28.5073 58.7327C28.8374 58.5312 29.1198 58.2756 29.3547 57.9659C29.5912 57.6497 29.7639 57.2887 29.8726 56.883C29.9985 56.4129 30.01 55.9708 29.907 55.5567C29.8057 55.1362 29.6065 54.7722 29.3093 54.4648C29.012 54.1574 28.6284 53.9407 28.1583 53.8148C27.759 53.7078 27.3681 53.6859 26.9853 53.749C26.6108 53.8073 26.2585 53.9373 25.9285 54.1387C25.6066 54.3354 25.3274 54.5919 25.0908 54.9081C24.8559 55.2179 24.6842 55.5756 24.5755 55.9813C24.4512 56.4449 24.4397 56.887 24.541 57.3076C24.6423 57.7281 24.8415 58.0921 25.1388 58.3995C25.436 58.7069 25.8197 58.9236 26.2898 59.0495ZM27.2476 61.2318L26.4262 56.9948L27.5757 57.3028L28.4067 61.5424L27.2476 61.2318Z" fill="#7F0081"/>
<path d="M32.5286 61.8393C32.1294 61.7324 31.8131 61.5475 31.5798 61.2849C31.3465 61.0222 31.2136 60.7071 31.1809 60.3394C31.1547 59.9735 31.231 59.5729 31.4098 59.1377L32.6849 56.1561L33.7667 56.446L32.4909 59.4688C32.3949 59.6984 32.3581 59.9129 32.3806 60.1122C32.4049 60.305 32.4805 60.4737 32.6074 60.6181C32.7425 60.7578 32.9195 60.857 33.1385 60.9157C33.3703 60.9778 33.5934 60.9824 33.8077 60.9294C34.0285 60.8781 34.2283 60.7764 34.4072 60.6241C34.5877 60.4655 34.731 60.2657 34.8369 60.0249L36.085 57.0672L37.1764 57.3596L35.0421 62.3886L34.0086 62.1117L34.4182 61.124L34.4804 61.3167C34.2267 61.5938 33.9293 61.7764 33.5883 61.8644C33.2489 61.9461 32.8957 61.9377 32.5286 61.8393Z" fill="#7F0081"/>
<path d="M36.326 62.7326L38.4506 57.7011L39.5518 57.9961L37.4175 63.0251L36.326 62.7326ZM38.7484 57.0147L39.2587 55.8056L40.3502 56.0981L39.8399 57.3072L38.7484 57.0147Z" fill="#7F0081"/>
<path d="M41.338 64.1998C40.855 64.0704 40.4529 63.8453 40.1316 63.5246C39.8121 63.1974 39.5946 62.8113 39.4792 62.3662C39.3702 61.9229 39.3813 61.4566 39.5124 60.9672C39.6211 60.5615 39.797 60.2014 40.04 59.8869C40.283 59.5724 40.5687 59.3177 40.897 59.1227C41.2253 58.9277 41.5791 58.805 41.9584 58.7548C42.3458 58.6999 42.7391 58.7259 43.1384 58.8329C43.5054 58.9312 43.823 59.0854 44.0912 59.2953C44.361 59.4987 44.572 59.7416 44.7241 60.0239C44.8844 60.3015 44.97 60.6005 44.9807 60.9209L43.8964 61.0652C43.8788 60.7705 43.7779 60.5158 43.594 60.3008C43.4117 60.0795 43.166 59.9274 42.8569 59.8445C42.5221 59.7548 42.2026 59.7624 41.8984 59.8672C41.6007 59.9738 41.3389 60.1521 41.1132 60.4022C40.8956 60.6476 40.7419 60.9377 40.6522 61.2726C40.5711 61.5752 40.5575 61.858 40.6113 62.1209C40.6715 62.3855 40.7898 62.6139 40.966 62.806C41.1505 62.9935 41.3779 63.1234 41.6484 63.1959C41.9768 63.2839 42.289 63.2778 42.585 63.1777C42.8827 63.0711 43.1331 62.8967 43.3361 62.6543L44.1436 63.3883C43.9389 63.6371 43.6881 63.8391 43.3911 63.9942C43.0942 64.1493 42.7675 64.2481 42.411 64.2906C42.0627 64.3284 41.705 64.2981 41.338 64.1998Z" fill="#7F0081"/>
<path d="M44.655 64.9643L47.6381 57.9266L48.7393 58.2217L46.7413 62.9352L46.2481 62.6892L49.9672 60.7869L51.4354 61.1803L48.6038 62.6681L49.3784 66.23L48.1903 65.9116L47.4939 62.7538L48.116 62.8273L45.8987 63.9932L46.5372 63.3878L45.7561 65.2594L44.655 64.9643Z" fill="#7F0081"/>
<path d="M21.5391 70.3656C21.1527 70.262 20.819 70.1036 20.538 69.8903C20.257 69.6769 20.0427 69.4332 19.8953 69.159C19.7479 68.8849 19.6744 68.5925 19.6748 68.282L20.7989 68.2209C20.7883 68.4665 20.8759 68.6936 21.0616 68.9021C21.2456 69.117 21.5275 69.2754 21.9074 69.3772C22.1715 69.448 22.43 69.462 22.6829 69.4194C22.9359 69.3767 23.1656 69.2795 23.3719 69.1277C23.5765 68.9824 23.7343 68.7797 23.8454 68.5196L24.3532 67.3201L24.5783 67.6393C24.2889 67.9206 23.9576 68.101 23.5843 68.1804C23.211 68.2599 22.8248 68.2461 22.4255 68.1391C21.9683 68.0166 21.5862 67.8072 21.279 67.511C20.9736 67.2083 20.763 66.8482 20.6471 66.4306C20.5394 66.0084 20.5494 65.559 20.6771 65.0824C20.7806 64.6961 20.9448 64.3536 21.1698 64.0549C21.4012 63.7581 21.6729 63.5168 21.9849 63.3312C22.2969 63.1457 22.6352 63.0293 22.9998 62.982C23.3662 62.9284 23.7426 62.9533 24.129 63.0568C24.5475 63.169 24.8969 63.3592 25.177 63.6275C25.4652 63.8911 25.6605 64.2057 25.7627 64.5713L25.4899 64.7777L25.9525 63.6697L26.9957 63.9492L24.9266 68.8507C24.7496 69.2795 24.4874 69.6268 24.1401 69.8926C23.7911 70.1649 23.3911 70.3442 22.94 70.4304C22.489 70.5166 22.022 70.495 21.5391 70.3656ZM22.8325 67.1611C23.1481 67.2457 23.4521 67.2443 23.7446 67.1571C24.0389 67.0634 24.2914 66.9067 24.5021 66.6871C24.7192 66.4692 24.8683 66.2089 24.9494 65.9063C25.0236 65.6294 25.0321 65.3659 24.9749 65.1159C24.9176 64.8659 24.7991 64.6513 24.6194 64.472C24.4461 64.2944 24.221 64.1685 23.9441 64.0943C23.6415 64.0132 23.3407 64.0155 23.0417 64.101C22.7508 64.1818 22.4969 64.3312 22.2797 64.5491C22.0626 64.767 21.9109 65.0369 21.8246 65.3589C21.7504 65.6358 21.742 65.8992 21.7992 66.1492C21.8582 66.3928 21.9775 66.6042 22.1572 66.7835C22.337 66.9628 22.5621 67.0887 22.8325 67.1611Z" fill="#7F0081"/>
<path d="M28.0297 69.9513C27.6305 69.8444 27.3142 69.6595 27.0809 69.3969C26.8476 69.1342 26.7146 68.8191 26.682 68.4514C26.6558 68.0855 26.7321 67.6849 26.9108 67.2497L28.186 64.2681L29.2678 64.558L27.992 67.5808C27.8959 67.8104 27.8592 68.0249 27.8817 68.2242C27.9059 68.417 27.9815 68.5857 28.1085 68.7301C28.2436 68.8698 28.4206 68.969 28.6395 69.0277C28.8714 69.0898 29.0945 69.0944 29.3088 69.0414C29.5296 68.9901 29.7294 68.8884 29.9082 68.7361C30.0888 68.5775 30.232 68.3777 30.338 68.1369L31.586 65.1792L32.6775 65.4716L30.5432 70.5006L29.5097 70.2237L29.9192 69.236L29.9815 69.4287C29.7278 69.7058 29.4304 69.8884 29.0893 69.9764C28.75 70.0581 28.3968 70.0497 28.0297 69.9513Z" fill="#7F0081"/>
<path d="M31.8271 70.8446L33.9517 65.8131L35.0529 66.1081L32.9185 71.1371L31.8271 70.8446ZM34.2495 65.1267L34.7598 63.9176L35.8513 64.2101L35.341 65.4192L34.2495 65.1267Z" fill="#7F0081"/>
<path d="M36.7811 72.2963C36.2981 72.1668 35.8984 71.9459 35.5818 71.6333C35.2734 71.316 35.063 70.9421 34.9506 70.5117C34.8463 70.0765 34.8589 69.6175 34.9883 69.1345C35.1039 68.7031 35.2832 68.3301 35.5262 68.0156C35.771 67.6947 36.0575 67.4367 36.3858 67.2417C36.7159 67.0403 37.0705 66.9145 37.4498 66.8642C37.8372 66.8093 38.2273 66.8345 38.6201 66.9397C39.058 67.057 39.4146 67.2458 39.69 67.5059C39.9654 67.7661 40.1519 68.0748 40.2493 68.4322L39.9799 68.5878L41.2635 65.536L42.3646 65.8311L39.3815 72.8688L38.3383 72.5893L38.7679 71.5656L38.9847 71.7997C38.6953 72.081 38.3535 72.2621 37.9592 72.3428C37.573 72.4187 37.1803 72.4032 36.7811 72.2963ZM37.1784 71.3157C37.5197 71.4071 37.8424 71.4004 38.1466 71.2956C38.4572 71.1925 38.7245 71.0191 38.9486 70.7754C39.1807 70.5271 39.3426 70.2322 39.434 69.8909C39.5134 69.5947 39.523 69.3143 39.4627 69.0497C39.4025 68.7851 39.2802 68.5591 39.0957 68.3716C38.913 68.1777 38.68 68.0428 38.3967 67.9669C38.0618 67.8772 37.7391 67.8839 37.4285 67.987C37.1196 68.0837 36.849 68.2562 36.6168 68.5046C36.3928 68.7482 36.2342 69.0439 36.141 69.3916C36.0617 69.6878 36.0521 69.9683 36.1123 70.2329C36.1726 70.4975 36.294 70.7267 36.4767 70.9206C36.6612 71.1081 36.8951 71.2398 37.1784 71.3157Z" fill="#7F0081"/>
<path d="M43.3005 74.0431C42.7983 73.9086 42.3865 73.6809 42.0652 73.3601C41.7521 73.0347 41.5411 72.6503 41.4321 72.207C41.3296 71.7654 41.343 71.3031 41.4724 70.8202C41.5794 70.4209 41.7471 70.0655 41.9755 69.7541C42.2121 69.4378 42.4881 69.1805 42.8035 68.9821C43.1271 68.7789 43.473 68.6472 43.8411 68.5871C44.2174 68.5223 44.6019 68.5425 44.9947 68.6478C45.5034 68.7841 45.9032 69.0051 46.194 69.3108C46.4912 69.6182 46.6817 69.9763 46.7653 70.3853C46.8507 70.7877 46.8365 71.2015 46.7226 71.6265C46.6933 71.736 46.6526 71.8493 46.6005 71.9665C46.5484 72.0836 46.498 72.1944 46.4493 72.2987L42.2765 71.1806L42.5771 70.3294L46.122 71.2792L45.4705 71.5084C45.6418 71.2299 45.7183 70.9571 45.7002 70.69C45.6838 70.4164 45.5915 70.1812 45.4234 69.9843C45.257 69.781 45.0289 69.6405 44.7392 69.5628C44.3721 69.4645 44.0444 69.4767 43.7561 69.5997C43.4696 69.7161 43.226 69.9166 43.0256 70.2011C42.8251 70.4855 42.6705 70.8306 42.5618 71.2363C42.4807 71.539 42.4712 71.8194 42.5331 72.0775C42.5968 72.3293 42.7194 72.5416 42.9008 72.7144C43.0823 72.8873 43.3082 73.0099 43.5787 73.0824C43.9007 73.1687 44.1974 73.1688 44.4689 73.0828C44.7469 72.9986 44.9901 72.8636 45.1986 72.6779L45.9411 73.3841C45.7532 73.596 45.5174 73.7675 45.2338 73.8986C44.9567 74.0314 44.6521 74.112 44.3201 74.1403C43.9881 74.1687 43.6483 74.1363 43.3005 74.0431Z" fill="#7F0081"/>
<defs>
<linearGradient id="paint0_linear_232_297" x1="50.0408" y1="1.63452" x2="50.0408" y2="80.34" gradientUnits="userSpaceOnUse">
<stop stop-color="#FFFEED"/>
<stop offset="1" stop-color="#FFFDE8"/>
</linearGradient>
<linearGradient id="paint1_linear_232_297" x1="76.8674" y1="50.2856" x2="88.7974" y2="53.7679" gradientUnits="userSpaceOnUse">
<stop stop-color="#65B9FF"/>
<stop offset="1" stop-color="#AAD8FF"/>
</linearGradient>
<linearGradient id="paint2_linear_232_297" x1="74.6772" y1="82.4624" x2="73.2386" y2="87.8312" gradientUnits="userSpaceOnUse">
<stop stop-color="#FFAF93"/>
<stop offset="1" stop-color="#996958"/>
</linearGradient>
</defs>
</svg>
