<svg width="96" height="96" viewBox="0 0 96 96" fill="none" xmlns="http://www.w3.org/2000/svg">
<path d="M43.9237 4.00234C46.187 1.78016 49.813 1.78016 52.0763 4.00234L58.9811 10.7819C60.1817 11.9608 61.8339 12.5621 63.5113 12.4308L73.1586 11.6757C76.3207 11.4281 79.0984 13.7589 79.4037 16.916L80.3353 26.5478C80.4973 28.2226 81.3764 29.7452 82.7458 30.7229L90.6214 36.3456C93.2028 38.1885 93.8325 41.7595 92.0371 44.3742L86.5595 52.3514C85.607 53.7385 85.3017 55.47 85.7223 57.0992L88.1412 66.4687C88.9341 69.5398 87.121 72.6801 84.065 73.529L74.7413 76.1189C73.1201 76.5693 71.7732 77.6994 71.0482 79.2178L66.8785 87.9501C65.5118 90.8123 62.1044 92.0525 59.2177 90.7384L50.4105 86.7293C48.8791 86.0322 47.1209 86.0322 45.5895 86.7293L36.7823 90.7384C33.8956 92.0525 30.4882 90.8123 29.1215 87.9501L24.9518 79.2178C24.2268 77.6994 22.8799 76.5693 21.2587 76.1189L11.935 73.529C8.87896 72.6801 7.06593 69.5398 7.85878 66.4687L10.2777 57.0992C10.6983 55.47 10.393 53.7385 9.4405 52.3514L3.96293 44.3742C2.16751 41.7595 2.79717 38.1885 5.3786 36.3456L13.2542 30.7229C14.6236 29.7452 15.5027 28.2226 15.6647 26.5478L16.5963 16.916C16.9016 13.7589 19.6793 11.4281 22.8414 11.6757L32.4887 12.4308C34.1661 12.5621 35.8183 11.9608 37.0189 10.7819L43.9237 4.00234Z" fill="#00C4A4"/>
<path d="M28.9773 53.435L38.4887 62.9463L67.0228 33.0537" stroke="white" stroke-width="5.81818" stroke-linecap="round" stroke-linejoin="round"/>
</svg>
