<svg width="30" height="30" viewBox="0 0 30 30" fill="none" xmlns="http://www.w3.org/2000/svg">
<path d="M3.12451 15C3.12451 9.40207 3.12451 6.60311 4.86356 4.86405C6.60262 3.125 9.40159 3.125 14.9995 3.125C20.5974 3.125 23.3964 3.125 25.1355 4.86405C26.8745 6.60311 26.8745 9.40207 26.8745 15C26.8745 20.5979 26.8745 23.3969 25.1355 25.136C23.3964 26.875 20.5974 26.875 14.9995 26.875C9.40159 26.875 6.60262 26.875 4.86356 25.136C3.12451 23.3969 3.12451 20.5979 3.12451 15Z" fill="#7F0081"/>
<path d="M7.48975 14.3579C10.1836 14.4476 16.2921 14.041 19.7666 8.52665M17.4899 7.86044L19.8343 7.48312C20.12 7.44673 20.5395 7.67232 20.6426 7.94123L21.2625 9.98928" stroke="white" stroke-width="1.5" stroke-linecap="round" stroke-linejoin="round"/>
<path d="M8.74951 20.6787V22.6787" stroke="white" stroke-width="1.5" stroke-linecap="round"/>
<path d="M15 18.6787V22.6787" stroke="white" stroke-width="1.5" stroke-linecap="round"/>
<path d="M21.2627 16.6787V22.6787" stroke="white" stroke-width="1.5" stroke-linecap="round"/>
</svg>
